<svg xmlns="http://www.w3.org/2000/svg" viewBox="0 0 305.27 154.39"><defs><style>.cls-1{fill:#27a4f7;}.cls-2{fill:#de6a72;}.cls-3{fill:#fff;}</style></defs><title>WhoseLineClub</title><g id="Layer_1" data-name="Layer 1"><path class="cls-1" d="M127.5,2.6c14.37,0,28.48,2.06,42.49,5a303.22,303.22,0,0,1,57.26,17.51c9.57,4.07,19,8.46,27.6,14.35a17.17,17.17,0,0,0,5,2.13,104.9,104.9,0,0,1,26,10.88C293,56.78,299.26,62,303.64,69.21c7.19,11.83,7.33,23.84.48,35.91-3.88,6.83-9.43,12.11-15.69,16.7-8.39,6.14-17.72,10.44-27.42,14-12.7,4.69-25.81,7.88-39,10.67-11.59,2.45-23.22,4.76-34.85,7a170.88,170.88,0,0,1-39.47,3.34,165.68,165.68,0,0,1-27.27-3.3c-11.26-2.34-22.48-4.9-33.75-7.23-5.75-1.18-11.55-2.14-17.35-3-2.9-.45-5.85-.54-8.77-.82a51.16,51.16,0,0,1-28.74-12c-13-10.89-22-24.48-26-40.93C1.13,70.43,5,52.75,16.67,36.94A71.07,71.07,0,0,1,52.58,10.77a79.3,79.3,0,0,1,16.5-3.33C77,6.63,84.92,6,92.84,5.28s15.84-1.56,23.77-2.22C120.23,2.76,123.87,2.74,127.5,2.6Z" transform="translate(-3.87 -2.6)"/></g><g id="Layer_2" data-name="Layer 2"><polygon class="cls-2" points="77.59 53.76 73.13 39.1 68.67 53.76 64.1 53.76 57.35 30.91 63.04 30.91 66.6 44.55 70.85 30.91 75.66 30.91 79.83 44.58 83.56 30.91 88.93 30.91 82.29 53.76 77.59 53.76"/><path class="cls-2" d="M102.81,56.35V48.29a11.78,11.78,0,0,0-.07-1.29,7.87,7.87,0,0,0-.28-1.21,1.42,1.42,0,0,0-.53-.78,1.86,1.86,0,0,0-1.07-.27,2.28,2.28,0,0,0-1.94.77,3.42,3.42,0,0,0-.67,2.2v8.64H93.19V32.06h5.06v9.18a5.44,5.44,0,0,1,.55-.39,5.61,5.61,0,0,1,3.06-.81,5.52,5.52,0,0,1,4.57,1.89,7.07,7.07,0,0,1,1.44,4.54v9.88Z" transform="translate(-3.87 -2.6)"/><path class="cls-2" d="M118.43,56.71a8.63,8.63,0,0,1-6.11-2.32,8.47,8.47,0,0,1,0-12,9.19,9.19,0,0,1,12.23,0,8.5,8.5,0,0,1,0,12A8.64,8.64,0,0,1,118.43,56.71Zm0-12a3.26,3.26,0,0,0-2.57,1,3.94,3.94,0,0,0,0,5.18A3.7,3.7,0,0,0,121,51a3.91,3.91,0,0,0,0-5.18A3.26,3.26,0,0,0,118.43,44.74Z" transform="translate(-3.87 -2.6)"/><path class="cls-2" d="M134.07,56.71a7.9,7.9,0,0,1-6.19-2.47l-.47-.53,3.46-3.24.49.54a4,4,0,0,0,2.92,1.55,2.5,2.5,0,0,0,1.3-.34.65.65,0,0,0,.4-.61c0-.2,0-.41-.42-.6a6.19,6.19,0,0,0-1.75-.58c-.79-.16-1.59-.35-2.37-.58a4.7,4.7,0,0,1-2.31-1.47,4.33,4.33,0,0,1-1-2.94,4.71,4.71,0,0,1,2-4.06A7.7,7.7,0,0,1,134.7,40c2.59,0,4.52.84,5.75,2.5l.39.52-3.5,3.15-.47-.65a2.61,2.61,0,0,0-2.26-1.18,2,2,0,0,0-1.09.29.55.55,0,0,0-.31.53c0,.08,0,.24.39.43a8,8,0,0,0,1.8.55,20.43,20.43,0,0,1,2.39.61,4.77,4.77,0,0,1,2.29,1.55,4.59,4.59,0,0,1,1,3,4.55,4.55,0,0,1-2.2,4.14A9,9,0,0,1,134.07,56.71Z" transform="translate(-3.87 -2.6)"/><path class="cls-2" d="M150.31,56.71a8.64,8.64,0,0,1-6.12-2.32,8.5,8.5,0,0,1,0-12A8.6,8.6,0,0,1,150.31,40a7,7,0,0,1,5.48,2.33,9.16,9.16,0,0,1,2,6.28v1.71H154L157.47,53l-.47.58A8.25,8.25,0,0,1,150.31,56.71Zm-3.38-6.35a2.77,2.77,0,0,0,.85,1.25,3.14,3.14,0,0,0,2.16.77,4.18,4.18,0,0,0,3.35-1.7l.25-.32Zm5.75-4.15a2.37,2.37,0,0,0-.7-1.29,3.05,3.05,0,0,0-2.19-.73,2.85,2.85,0,0,0-2.06.73,3,3,0,0,0-.8,1.29Z" transform="translate(-3.87 -2.6)"/><polygon class="cls-2" points="127.1 90.04 127.1 67.2 132.34 67.2 132.34 85.16 141.45 85.16 141.45 90.04 127.1 90.04"/><path class="cls-2" d="M146.4,92.64v-16h5.06v16Zm2.5-17.27a2.92,2.92,0,0,1-2.13-.85,2.78,2.78,0,0,1,0-4.08,2.92,2.92,0,0,1,2.13-.85,3.12,3.12,0,0,1,2.16.8,2.76,2.76,0,0,1,.91,2.09,2.72,2.72,0,0,1-.91,2.09A3.12,3.12,0,0,1,148.9,75.37Z" transform="translate(-3.87 -2.6)"/><path class="cls-2" d="M163.82,92.64V84.58a11.64,11.64,0,0,0-.07-1.29,7.61,7.61,0,0,0-.28-1.21,1.42,1.42,0,0,0-.53-.78,1.86,1.86,0,0,0-1.07-.27,2.28,2.28,0,0,0-1.94.77,3.42,3.42,0,0,0-.67,2.2v8.64H154.2v-16h4.88v.93a6.35,6.35,0,0,1,8.36.6,7.07,7.07,0,0,1,1.44,4.54v9.88Z" transform="translate(-3.87 -2.6)"/><path class="cls-2" d="M179.44,93a8.63,8.63,0,0,1-6.11-2.32,8.47,8.47,0,0,1,0-12,8.59,8.59,0,0,1,6.11-2.33,7,7,0,0,1,5.48,2.33,9.11,9.11,0,0,1,2,6.28v1.71h-3.8l3.45,2.61-.47.58A8.26,8.26,0,0,1,179.44,93Zm-3.37-6.35a2.77,2.77,0,0,0,.85,1.25,3.13,3.13,0,0,0,2.16.77A4.13,4.13,0,0,0,182.42,87l.26-.31Zm5.75-4.15a2.38,2.38,0,0,0-.71-1.29,3,3,0,0,0-2.18-.73,2.88,2.88,0,0,0-2.07.73,3,3,0,0,0-.79,1.29Z" transform="translate(-3.87 -2.6)"/><path class="cls-2" d="M171,129.47a11.92,11.92,0,0,1-8.65-3.28A11.53,11.53,0,0,1,159,117.6a11.49,11.49,0,0,1,12-12.06,10.18,10.18,0,0,1,8,3.64l.51.58-4.1,3-.43-.47a5.37,5.37,0,0,0-4-1.89,6.15,6.15,0,0,0-4.78,2,6.91,6.91,0,0,0-1.85,5,7.43,7.43,0,0,0,1.85,5.23,6.12,6.12,0,0,0,4.78,2,5.22,5.22,0,0,0,4.24-2.32l.43-.54,4.29,3-.43.59A10,10,0,0,1,171,129.47Z" transform="translate(-3.87 -2.6)"/><rect class="cls-2" x="176.68" y="102.04" width="5.06" height="24.3"/><path class="cls-2" d="M194.37,129.29a5.48,5.48,0,0,1-4.57-1.89,7.07,7.07,0,0,1-1.44-4.54V113h5.06v8.07a9.56,9.56,0,0,0,.07,1.28,6.84,6.84,0,0,0,.28,1.21,1.42,1.42,0,0,0,.53.78,1.81,1.81,0,0,0,1.06.27,2.31,2.31,0,0,0,1.95-.76,3.46,3.46,0,0,0,.66-2.21V113H203v16h-4.88V128A5.48,5.48,0,0,1,194.37,129.29Z" transform="translate(-3.87 -2.6)"/><path class="cls-2" d="M214.93,129.29a6.53,6.53,0,0,1-4.33-1.39v1h-4.88v-24.3h5.06v9.31a7,7,0,0,1,4.3-1.32,7.2,7.2,0,0,1,5.58,2.41,9.29,9.29,0,0,1,0,11.86A7.38,7.38,0,0,1,214.93,129.29Zm-.73-12a3.25,3.25,0,0,0-2.56,1.05,3.9,3.9,0,0,0,0,5.17,3.66,3.66,0,0,0,5.13,0,3.9,3.9,0,0,0,0-5.17A3.26,3.26,0,0,0,214.2,117.32Z" transform="translate(-3.87 -2.6)"/><polygon class="cls-3" points="79.75 51.69 75.29 37.03 70.83 51.69 66.26 51.69 59.52 28.84 65.2 28.84 68.76 42.48 73.01 28.84 77.82 28.84 82 42.51 85.72 28.84 91.1 28.84 84.45 51.69 79.75 51.69"/><path class="cls-3" d="M105,54.28V46.22a9.72,9.72,0,0,0-.07-1.29,7.73,7.73,0,0,0-.27-1.21,1.41,1.41,0,0,0-.54-.77,1.73,1.73,0,0,0-1.06-.28,2.3,2.3,0,0,0-2,.77,3.47,3.47,0,0,0-.66,2.2v8.64H95.36V30h5.06v9.18a4.51,4.51,0,0,1,.55-.39A5.61,5.61,0,0,1,104,38a5.5,5.5,0,0,1,4.56,1.89A7.07,7.07,0,0,1,110,44.4v9.88Z" transform="translate(-3.87 -2.6)"/><path class="cls-3" d="M120.6,54.65a8.65,8.65,0,0,1-6.12-2.33,7.94,7.94,0,0,1-2.49-6,7.91,7.91,0,0,1,2.49-6,9.19,9.19,0,0,1,12.23,0,7.88,7.88,0,0,1,2.5,6,7.91,7.91,0,0,1-2.5,6A8.64,8.64,0,0,1,120.6,54.65Zm0-12a3.26,3.26,0,0,0-2.57,1,3.91,3.91,0,0,0,0,5.18,3.67,3.67,0,0,0,5.14,0,3.94,3.94,0,0,0,0-5.18A3.26,3.26,0,0,0,120.6,42.67Z" transform="translate(-3.87 -2.6)"/><path class="cls-3" d="M136.23,54.65A7.92,7.92,0,0,1,130,52.17l-.46-.52L133,48.4l.49.54a4,4,0,0,0,2.92,1.55,2.56,2.56,0,0,0,1.31-.34.65.65,0,0,0,.4-.61.63.63,0,0,0-.42-.6,6.16,6.16,0,0,0-1.76-.58c-.79-.16-1.58-.35-2.37-.58a4.7,4.7,0,0,1-2.31-1.47,4.33,4.33,0,0,1-1-2.94,4.71,4.71,0,0,1,2-4.06A7.71,7.71,0,0,1,136.87,38c2.58,0,4.52.84,5.74,2.5L143,41l-3.5,3.15-.46-.65a2.61,2.61,0,0,0-2.26-1.18,2,2,0,0,0-1.1.29.54.54,0,0,0-.3.53c0,.08,0,.24.39.43a7.93,7.93,0,0,0,1.79.55,20.43,20.43,0,0,1,2.39.61,4.77,4.77,0,0,1,2.29,1.55,4.6,4.6,0,0,1,1,3A4.53,4.53,0,0,1,141,53.41,9,9,0,0,1,136.23,54.65Z" transform="translate(-3.87 -2.6)"/><path class="cls-3" d="M152.47,54.65a8.66,8.66,0,0,1-6.12-2.33,7.94,7.94,0,0,1-2.49-6,7.91,7.91,0,0,1,2.49-6A8.62,8.62,0,0,1,152.47,38,7,7,0,0,1,158,40.3a9.16,9.16,0,0,1,2,6.28v1.71h-3.81l3.45,2.61-.46.58A8.28,8.28,0,0,1,152.47,54.65Zm-3.38-6.36a3,3,0,0,0,.85,1.26,3.21,3.21,0,0,0,2.17.76,4.16,4.16,0,0,0,3.34-1.7l.26-.32Zm5.76-4.15a2.49,2.49,0,0,0-.71-1.29,3,3,0,0,0-2.18-.72,2.87,2.87,0,0,0-2.07.72,3,3,0,0,0-.8,1.29Z" transform="translate(-3.87 -2.6)"/><polygon class="cls-3" points="129.27 87.97 129.27 65.13 134.51 65.13 134.51 83.09 143.61 83.09 143.61 87.97 129.27 87.97"/><path class="cls-3" d="M148.56,90.57V74.62h5.07V90.57Zm2.5-17.27a2.93,2.93,0,0,1-2.13-.85,2.8,2.8,0,0,1,0-4.08,2.93,2.93,0,0,1,2.13-.85,3.1,3.1,0,0,1,2.16.8,2.83,2.83,0,0,1,0,4.18A3.1,3.1,0,0,1,151.06,73.3Z" transform="translate(-3.87 -2.6)"/><path class="cls-3" d="M166,90.57V82.51a9.62,9.62,0,0,0-.07-1.29,6.65,6.65,0,0,0-.28-1.21,1.41,1.41,0,0,0-.53-.78A1.81,1.81,0,0,0,164,79a2.3,2.3,0,0,0-1.95.77,3.41,3.41,0,0,0-.66,2.2v8.64h-5.07V74.62h4.89v.93a6.34,6.34,0,0,1,8.35.6A7.07,7.07,0,0,1,171,80.69v9.88Z" transform="translate(-3.87 -2.6)"/><path class="cls-3" d="M181.61,90.93a8.64,8.64,0,0,1-6.12-2.32,8.5,8.5,0,0,1,0-12,8.6,8.6,0,0,1,6.12-2.33,7,7,0,0,1,5.48,2.33,9.16,9.16,0,0,1,2,6.28v1.71h-3.81l3.45,2.61-.47.58A8.25,8.25,0,0,1,181.61,90.93Zm-3.38-6.35a2.77,2.77,0,0,0,.85,1.25,3.14,3.14,0,0,0,2.16.77,4.18,4.18,0,0,0,3.35-1.7l.25-.32ZM184,80.43a2.37,2.37,0,0,0-.7-1.29,3.05,3.05,0,0,0-2.19-.73,2.85,2.85,0,0,0-2.06.73,3,3,0,0,0-.8,1.29Z" transform="translate(-3.87 -2.6)"/><path class="cls-3" d="M173.15,127.4a11.93,11.93,0,0,1-8.65-3.28,11.52,11.52,0,0,1-3.37-8.59,11.47,11.47,0,0,1,12-12.06,10.23,10.23,0,0,1,8,3.64l.5.58-4.1,3-.43-.47a5.34,5.34,0,0,0-4-1.89,6.19,6.19,0,0,0-4.78,2,7,7,0,0,0-1.85,5,7.39,7.39,0,0,0,1.86,5.23,6.09,6.09,0,0,0,4.77,2,5.26,5.26,0,0,0,4.25-2.32l.42-.54,4.29,3-.42.59A10,10,0,0,1,173.15,127.4Z" transform="translate(-3.87 -2.6)"/><rect class="cls-3" x="178.85" y="99.97" width="5.06" height="24.3"/><path class="cls-3" d="M196.53,127.22a5.49,5.49,0,0,1-4.57-1.89,7.13,7.13,0,0,1-1.44-4.54v-9.88h5.06V119a11.59,11.59,0,0,0,.07,1.28,7.87,7.87,0,0,0,.28,1.21,1.48,1.48,0,0,0,.53.78,1.86,1.86,0,0,0,1.07.27,2.31,2.31,0,0,0,1.94-.76,3.46,3.46,0,0,0,.67-2.21v-8.64h5.06v16h-4.88v-.93A5.48,5.48,0,0,1,196.53,127.22Z" transform="translate(-3.87 -2.6)"/><path class="cls-3" d="M217.09,127.22a6.53,6.53,0,0,1-4.33-1.39v1h-4.88v-24.3h5.06v9.31a7,7,0,0,1,4.31-1.32,7.23,7.23,0,0,1,5.58,2.41,9.27,9.27,0,0,1,0,11.86A7.36,7.36,0,0,1,217.09,127.22Zm-.72-12a3.26,3.26,0,0,0-2.57,1,3.9,3.9,0,0,0,0,5.17,3.67,3.67,0,0,0,5.14,0,3.9,3.9,0,0,0,0-5.17A3.26,3.26,0,0,0,216.37,115.25Z" transform="translate(-3.87 -2.6)"/></g></svg>